<?xml version="1.0" standalone="no"?>
<!DOCTYPE svg PUBLIC "-//W3C//DTD SVG 20010904//EN"
 "http://www.w3.org/TR/2001/REC-SVG-20010904/DTD/svg10.dtd">
<svg version="1.0" xmlns="http://www.w3.org/2000/svg"
 width="100.000000pt" height="75.000000pt" viewBox="0 0 100.000000 75.000000"
 preserveAspectRatio="xMidYMid meet">
<metadata>
Created by potrace 1.16, written by Peter Selinger 2001-2019
</metadata>
<g transform="translate(0.000000,75.000000) scale(0.100000,-0.100000)"
fill="#000000" stroke="none">
<path d="M460 718 c0 -8 11 -25 25 -38 31 -29 31 -29 -1 -112 l-26 -67 -151
-3 -152 -3 0 -195 0 -195 318 -3 317 -2 0 120 c0 101 3 122 16 127 9 3 25 26
35 51 l20 46 -83 83 c-45 45 -79 86 -75 89 4 4 41 -26 83 -66 56 -55 78 -70
86 -62 7 7 32 12 56 12 26 0 42 4 40 11 -2 5 -53 55 -113 109 l-110 100 -66 0
c-36 0 -100 3 -142 6 -64 6 -77 4 -77 -8z m37 -279 c56 -51 137 -89 208 -96
l56 -6 -3 -106 -3 -106 -282 -3 -283 -2 0 173 c0 96 3 177 7 180 3 4 62 7 131
7 l125 0 44 -41z"/>
<path d="M95 60 c17 -19 31 -20 375 -20 344 0 358 1 375 20 18 20 17 20 -375
20 -392 0 -393 0 -375 -20z"/>
</g>
</svg>
