<?xml version="1.0" standalone="no"?>
<!DOCTYPE svg PUBLIC "-//W3C//DTD SVG 20010904//EN"
 "http://www.w3.org/TR/2001/REC-SVG-20010904/DTD/svg10.dtd">
<svg version="1.0" xmlns="http://www.w3.org/2000/svg"
 width="702.000000pt" height="702.000000pt" viewBox="0 0 702.000000 702.000000"
 preserveAspectRatio="xMidYMid meet">

<g transform="translate(0.000000,702.000000) scale(0.100000,-0.100000)"
fill="#000000" stroke="none">
<path d="M3255 6511 c-63 -29 -106 -70 -137 -136 -24 -49 -29 -72 -27 -125 2
-88 2 -88 -21 -95 -41 -13 -35 -49 21 -142 68 -113 77 -123 109 -123 34 0 84
44 77 69 -2 10 -35 66 -72 126 -47 74 -69 120 -72 149 -15 133 96 257 229 255
108 -1 143 -27 237 -180 45 -73 80 -119 92 -122 12 -3 18 -10 14 -16 -4 -7
-67 -11 -179 -11 -120 0 -176 -4 -184 -12 -17 -17 -17 -609 0 -626 8 -8 64
-12 185 -12 l173 0 0 -23 c0 -13 6 -32 14 -43 14 -18 31 -19 368 -21 304 -2
356 -1 373 13 18 14 20 30 25 207 3 106 3 207 1 225 -4 43 -38 65 -96 64 -53
-1 -54 0 -58 133 l-2 90 -137 3 c-76 1 -138 4 -138 5 0 1 16 40 35 86 42 98
44 124 13 119 -17 -2 -27 -19 -50 -83 -49 -137 -32 -125 -180 -125 -126 0
-128 0 -128 23 0 12 9 28 20 35 11 7 20 22 20 34 0 30 -119 216 -143 224 -10
3 -30 0 -44 -7 -19 -10 -28 -11 -41 -1 -9 7 -39 24 -67 37 -63 31 -169 34
-230 6z m709 -432 c6 -6 -46 -152 -78 -224 -14 -29 -36 -102 -36 -117 0 -5 7
-8 15 -8 17 0 37 36 75 138 15 43 40 109 55 149 l27 71 102 -1 101 -2 0 -250
0 -250 -407 -3 -408 -2 0 249 c0 158 4 251 10 253 18 6 538 3 544 -3z m324
-131 c-3 -47 -21 -55 -26 -12 -4 31 4 54 18 54 7 0 10 -17 8 -42z m157 -273
l0 -210 -350 0 c-343 0 -350 0 -350 20 0 19 8 20 290 25 l290 5 3 188 2 188
58 -3 57 -3 0 -210z m-525 177 c0 -5 -7 -17 -16 -28 -14 -17 -15 -17 -10 -1 3
10 6 23 6 28 0 5 5 9 10 9 6 0 10 -4 10 -8z m385 -17 c0 -22 -31 -33 -47 -17
-17 17 -1 44 24 40 15 -2 23 -10 23 -23z m-17 -117 c-2 -24 -7 -43 -13 -43 -5
0 -11 19 -13 43 -3 33 0 42 13 42 13 0 16 -9 13 -42z"/>
<path d="M5092 5818 c-9 -9 -12 -110 -12 -394 0 -342 2 -383 16 -395 13 -11
67 -14 248 -14 l231 0 3 48 3 47 -185 0 -186 0 0 315 0 315 520 0 520 0 -2
-312 -3 -313 -58 -3 -58 -3 3 -47 3 -47 85 -3 c58 -2 91 1 103 10 17 12 18 40
17 397 0 265 -4 389 -11 398 -16 18 -1219 19 -1237 1z m76 -245 c-4 -66 -28
-70 -28 -4 0 39 4 51 16 51 12 0 14 -10 12 -47z m11 -131 c20 -38 -31 -71 -59
-37 -6 8 -9 23 -5 35 8 25 51 27 64 2z m-11 -161 c3 -44 0 -52 -13 -49 -9 1
-16 6 -16 11 1 4 1 28 1 53 0 66 24 53 28 -15z"/>
<path d="M2486 5741 c-3 -4 -3 -33 0 -65 5 -56 5 -56 -23 -56 -200 -4 -227 -6
-230 -17 -4 -10 26 -13 127 -13 l131 0 -3 -32 -3 -33 -127 -3 c-71 -1 -128 -7
-128 -12 0 -5 57 -11 128 -12 l127 -3 3 -32 3 -33 -131 0 c-101 0 -131 -3
-127 -12 2 -9 35 -14 108 -15 57 -1 114 -2 127 -3 18 0 22 -6 22 -30 l0 -30
-130 0 c-109 0 -130 -2 -130 -15 0 -13 21 -15 131 -15 l130 0 -3 -32 -3 -33
-127 -3 c-171 -4 -169 -22 2 -22 l130 0 0 -35 0 -35 -130 0 c-80 0 -130 -4
-130 -10 0 -6 50 -10 131 -10 126 0 130 -1 124 -20 -8 -25 3 -26 20 -3 12 17
14 17 34 -1 21 -19 21 -19 21 2 0 21 5 22 85 22 50 0 85 4 85 10 0 6 -35 10
-85 10 l-85 0 0 35 0 35 85 0 c50 0 85 4 85 10 0 6 -35 10 -85 10 l-85 0 0 35
0 35 85 0 c69 0 85 3 85 15 0 12 -16 15 -85 15 l-85 0 0 30 0 30 63 1 c92 2
100 3 104 17 4 9 -17 12 -81 12 l-86 0 0 35 0 35 85 0 c50 0 85 4 85 10 0 6
-35 10 -85 10 l-85 0 0 35 0 35 86 0 c64 0 85 3 81 13 -2 7 -27 13 -68 14 -35
1 -72 2 -81 2 -15 1 -18 11 -18 66 l0 65 -34 0 c-19 0 -37 -4 -40 -9z"/>
<path d="M5537 5656 c-45 -41 -60 -82 -52 -142 6 -48 4 -57 -19 -87 -20 -26
-23 -36 -13 -46 6 -6 17 -37 22 -68 11 -60 20 -69 76 -78 26 -4 38 -12 42 -26
5 -18 12 -20 54 -17 l48 3 3 152 c2 138 4 154 22 163 10 5 26 7 34 4 28 -11
17 3 -26 31 -38 25 -42 26 -54 10 -10 -14 -16 -15 -36 -5 -63 33 -74 66 -33
98 33 26 32 32 -9 32 -21 0 -42 -9 -59 -24z"/>
<path d="M5770 5676 c0 -3 18 -13 40 -22 88 -35 119 -128 64 -193 -32 -38 -59
-42 -50 -7 4 18 0 28 -17 39 l-22 14 3 -146 c2 -80 8 -150 13 -155 5 -6 9 2 9
21 0 18 13 50 33 79 67 99 95 195 76 267 -14 58 -55 97 -108 104 -22 3 -41 3
-41 -1z"/>
<path d="M1865 5641 c-4 -14 -15 -21 -33 -21 -15 -1 -160 -1 -322 -1 -166 -1
-302 -5 -312 -10 -17 -9 -18 -45 -18 -588 0 -526 2 -580 17 -592 21 -18 710
-27 742 -9 20 10 21 18 21 265 l0 255 26 0 c31 0 28 23 -4 28 -32 5 -32 59 0
64 32 5 35 28 4 28 -23 0 -26 4 -26 35 0 31 3 35 25 35 14 0 25 5 25 10 0 6
-11 10 -25 10 -22 0 -25 4 -25 35 0 31 3 35 25 35 31 0 33 17 3 22 -33 4 -39
65 -8 70 27 4 27 22 0 26 -30 5 -29 59 2 64 32 5 35 28 4 28 -23 0 -26 4 -26
35 0 31 3 35 25 35 14 0 25 5 25 10 0 6 -11 10 -25 10 -22 0 -25 4 -25 35 0
31 3 35 26 35 39 0 23 25 -17 26 -53 2 -57 3 -55 21 2 27 -41 30 -49 4z m-234
-121 l186 0 -39 -102 c-22 -57 -55 -143 -73 -193 -18 -49 -47 -125 -64 -168
-42 -105 -52 -153 -36 -167 20 -17 39 18 102 185 24 66 59 158 78 205 18 47
41 109 51 138 10 28 22 52 26 52 5 0 8 -209 8 -465 l0 -465 -300 0 -300 0 0
493 0 493 88 -2 c48 -2 171 -3 273 -4z m28 -522 c-17 -31 -23 -9 -8 28 9 22
13 25 16 12 2 -9 -1 -27 -8 -40z m-62 -504 c6 -17 -6 -45 -23 -51 -21 -7 -47
23 -40 45 9 27 53 30 63 6z m-123 0 c29 -11 5 -24 -45 -24 -46 0 -59 7 -42 23
8 9 66 9 87 1z m284 -11 c3 -9 -12 -13 -52 -13 -52 0 -73 11 -43 24 22 9 90 1
95 -11z"/>
<path d="M4850 5510 c0 -5 13 -10 29 -10 17 0 33 5 36 10 4 6 -8 10 -29 10
-20 0 -36 -4 -36 -10z"/>
<path d="M4960 5510 c0 -5 11 -10 24 -10 14 0 28 5 31 10 4 6 -7 10 -24 10
-17 0 -31 -4 -31 -10z"/>
<path d="M4759 5494 c-12 -15 -11 -16 11 -9 35 10 49 25 23 25 -11 0 -27 -7
-34 -16z"/>
<path d="M4730 5410 c0 -18 4 -29 10 -25 6 3 10 15 10 25 0 10 -4 22 -10 25
-6 4 -10 -7 -10 -25z"/>
<path d="M3868 5369 c-5 -29 3 -45 16 -32 9 9 7 51 -3 57 -5 3 -11 -8 -13 -25z"/>
<path d="M4730 5299 c0 -17 4 -28 10 -24 6 3 10 17 10 31 0 13 -4 24 -10 24
-5 0 -10 -14 -10 -31z"/>
<path d="M3870 5260 c0 -16 5 -30 10 -30 6 0 10 14 10 30 0 17 -4 30 -10 30
-5 0 -10 -13 -10 -30z"/>
<path d="M4730 5195 c0 -22 4 -34 10 -30 6 3 10 17 10 30 0 13 -4 27 -10 30
-6 4 -10 -8 -10 -30z"/>
<path d="M3870 5155 c0 -22 4 -34 10 -30 6 3 10 17 10 30 0 13 -4 27 -10 30
-6 4 -10 -8 -10 -30z"/>
<path d="M4730 5089 c0 -17 4 -28 10 -24 6 3 10 17 10 31 0 13 -4 24 -10 24
-5 0 -10 -14 -10 -31z"/>
<path d="M5660 5075 c0 -38 25 -59 41 -34 17 25 6 64 -18 67 -20 3 -23 -1 -23
-33z"/>
<path d="M5797 5078 c11 -62 43 -63 43 -2 0 30 -3 34 -25 34 -22 0 -24 -3 -18
-32z"/>
<path d="M5922 5073 c2 -26 8 -38 18 -38 10 0 16 12 18 38 3 32 0 37 -18 37
-18 0 -21 -5 -18 -37z"/>
<path d="M6040 5082 c0 -15 5 -33 12 -40 17 -17 38 4 38 39 0 24 -4 29 -25 29
-21 0 -25 -5 -25 -28z"/>
<path d="M3870 5050 c0 -16 5 -30 10 -30 6 0 10 14 10 30 0 17 -4 30 -10 30
-5 0 -10 -13 -10 -30z"/>
<path d="M2230 5045 c0 -13 34 -15 250 -15 216 0 250 2 250 15 0 13 -34 15
-250 15 -216 0 -250 -2 -250 -15z"/>
<path d="M4730 4985 c0 -20 4 -34 9 -31 5 3 9 17 9 31 0 14 -4 28 -9 31 -5 3
-9 -11 -9 -31z"/>
<path d="M2237 4964 c-20 -21 14 -24 244 -24 196 0 250 3 247 13 -4 9 -63 13
-244 15 -132 1 -243 -1 -247 -4z"/>
<path d="M3870 4950 c0 -11 5 -20 10 -20 6 0 10 9 10 20 0 11 -4 20 -10 20 -5
0 -10 -9 -10 -20z"/>
<path d="M3342 4919 c-12 -5 -27 -20 -34 -34 -17 -38 4 -72 112 -180 49 -49
90 -97 90 -105 0 -8 -15 -55 -34 -105 -33 -89 -148 -394 -161 -427 -7 -17 -43
-18 -554 -18 l-548 0 -21 -23 -22 -23 0 -712 0 -712 23 -15 c21 -13 159 -15
1184 -15 639 0 1168 2 1176 6 9 3 18 13 22 22 3 9 6 210 6 445 l0 428 53 23
c51 23 96 65 96 91 0 7 8 30 17 51 40 93 63 172 63 216 l0 46 -290 283 c-298
290 -321 319 -262 327 19 3 64 -37 230 -200 270 -264 361 -352 370 -356 4 -1
15 17 23 40 l16 43 149 3 c136 2 150 4 171 24 47 44 31 71 -132 218 -27 25
-149 135 -270 245 -121 110 -260 236 -309 280 l-89 79 -216 12 c-219 12 -708
41 -792 47 -25 2 -55 0 -67 -4z m23 -999 c9 -29 138 -154 220 -215 213 -157
530 -265 779 -265 l66 0 -2 -392 -3 -393 -1050 0 -1050 0 -3 643 -2 642 519 0
c510 0 520 0 526 -20z"/>
<path d="M2745 3313 c2 -16 4 -62 4 -104 l1 -76 60 -2 c47 -1 60 2 60 14 0 11
-12 15 -45 15 l-45 0 0 90 c0 82 -2 90 -19 90 -16 0 -19 -6 -16 -27z"/>
<path d="M2920 3235 l0 -106 57 3 c69 4 84 25 21 30 -40 3 -43 5 -43 33 0 28
3 30 38 33 45 4 46 25 1 28 -44 2 -44 2 -44 28 0 22 5 25 42 28 23 2 43 9 46
16 3 9 -13 12 -57 12 l-61 0 0 -105z"/>
<path d="M3102 3242 c-18 -54 -32 -101 -32 -105 0 -18 32 -4 40 17 17 46 93
47 104 1 4 -17 13 -25 27 -25 13 0 19 5 16 13 -3 6 -20 54 -37 105 -29 86 -34
92 -59 92 -25 0 -29 -6 -59 -98z m81 23 l16 -45 -25 -6 c-14 -4 -29 -3 -34 2
-9 10 10 94 21 94 4 0 14 -20 22 -45z"/>
<path d="M3300 3235 c0 -99 1 -105 21 -105 13 0 20 6 18 18 -8 82 17 95 57 27
16 -28 33 -45 45 -45 25 0 24 6 -6 42 -28 33 -32 63 -10 72 9 3 15 18 15 35 0
40 -32 61 -92 61 l-48 0 0 -105z m101 62 c7 -11 0 -47 -10 -47 -3 0 -16 -3
-27 -6 -18 -5 -22 -1 -26 26 -3 21 0 34 11 39 16 10 42 3 52 -12z"/>
<path d="M3502 3238 c2 -84 6 -103 18 -103 12 0 15 15 13 78 -1 44 2 77 8 75
5 -2 28 -37 51 -78 36 -62 47 -75 68 -75 25 0 25 1 28 103 2 86 0 102 -13 102
-12 0 -15 -14 -15 -75 0 -60 -3 -75 -15 -75 -8 0 -15 5 -15 12 0 6 -17 40 -37
75 -32 54 -41 63 -65 63 l-29 0 3 -102z"/>
<path d="M3750 3235 c0 -98 1 -105 20 -105 19 0 20 7 20 105 0 98 -1 105 -20
105 -19 0 -20 -7 -20 -105z"/>
<path d="M3852 3234 c-1 -94 1 -105 16 -102 14 3 17 15 15 81 -1 42 2 77 7 77
5 0 19 -19 31 -42 43 -84 71 -119 93 -116 20 3 21 10 24 106 2 92 1 102 -15
102 -16 0 -18 -8 -15 -75 2 -44 0 -75 -6 -75 -5 0 -29 34 -53 75 -36 64 -47
75 -69 75 l-26 0 -2 -106z"/>
<path d="M4126 3316 c-22 -20 -26 -32 -26 -80 0 -73 28 -106 89 -106 65 0 71
6 71 66 l0 55 -35 -3 c-38 -2 -48 -22 -15 -31 14 -3 20 -14 20 -31 0 -22 -4
-26 -30 -26 -67 0 -95 86 -45 136 22 22 31 25 65 19 33 -6 40 -4 40 9 0 13
-11 16 -54 16 -44 0 -60 -5 -80 -24z"/>
<path d="M4730 4880 c0 -18 4 -29 10 -25 6 3 10 15 10 25 0 10 -4 22 -10 25
-6 4 -10 -7 -10 -25z"/>
<path d="M4730 4775 c0 -22 4 -34 10 -30 6 3 10 17 10 30 0 13 -4 27 -10 30
-6 4 -10 -8 -10 -30z"/>
<path d="M2018 4733 c-31 -8 -19 -24 15 -21 17 2 31 8 30 13 -2 12 -21 15 -45
8z"/>
<path d="M2114 4728 c-7 -11 23 -21 41 -14 8 3 15 10 15 16 0 11 -49 10 -56
-2z"/>
<path d="M2220 4725 c0 -12 7 -15 25 -13 14 2 26 8 26 13 0 6 -12 11 -26 13
-18 2 -25 -1 -25 -13z"/>
<path d="M2325 4731 c-7 -13 17 -24 40 -19 9 1 16 8 16 13 0 14 -48 19 -56 6z"/>
<path d="M2433 4728 c5 -17 49 -17 55 0 2 8 -7 12 -28 12 -21 0 -30 -4 -27
-12z"/>
<path d="M2540 4726 c0 -10 9 -14 25 -13 33 3 33 21 0 25 -17 2 -25 -1 -25
-12z"/>
<path d="M2645 4730 c-7 -12 -8 -11 28 -16 29 -3 37 10 11 20 -22 8 -32 8 -39
-4z"/>
<path d="M2744 4680 c3 -14 6 -28 6 -32 0 -5 5 -8 10 -8 15 0 12 24 -6 46 -15
18 -15 18 -10 -6z"/>
<path d="M4730 4671 c0 -17 4 -31 9 -31 5 0 9 11 9 25 0 14 -4 28 -9 31 -5 3
-9 -9 -9 -25z"/>
<path d="M2757 4593 c-6 -11 -2 -51 6 -59 4 -4 7 9 7 29 0 36 -4 45 -13 30z"/>
<path d="M6069 4565 c-3 -2 -100 -5 -215 -5 -116 -1 -216 -5 -222 -9 -9 -5
-12 -33 -10 -92 l3 -84 240 -3 c279 -3 265 -8 265 98 0 52 -4 71 -18 83 -18
17 -34 21 -43 12z"/>
<path d="M2753 4465 c0 -14 3 -28 8 -31 5 -3 9 9 9 25 0 17 -4 31 -9 31 -5 0
-8 -11 -8 -25z"/>
<path d="M2759 4388 c-7 -15 -6 -59 2 -63 5 -4 9 10 9 29 0 29 -6 46 -11 34z"/>
<path d="M2759 4278 c-6 -24 -5 -58 2 -58 5 0 9 14 9 30 0 17 -2 30 -5 30 -3
0 -5 -1 -6 -2z"/>
<path d="M2759 4178 c-7 -15 -6 -59 2 -63 5 -4 9 10 9 29 0 29 -6 46 -11 34z"/>
<path d="M1144 4077 c-2 -7 -3 -91 -2 -187 l3 -175 57 -3 c49 -3 57 -1 52 13
-3 8 -1 15 5 15 6 0 11 -7 11 -15 0 -8 3 -15 8 -16 4 0 28 -3 53 -5 l46 -4 7
87 c7 97 7 270 -1 290 -7 18 -231 19 -239 0z m216 -172 l0 -155 -95 0 -95 0 0
155 0 155 95 0 95 0 0 -155z m-130 -175 c0 -5 -4 -10 -10 -10 -5 0 -10 5 -10
10 0 6 5 10 10 10 6 0 10 -4 10 -10z m90 6 c0 -3 -4 -8 -10 -11 -5 -3 -10 -1
-10 4 0 6 5 11 10 11 6 0 10 -2 10 -4z"/>
<path d="M766 4009 c-57 -45 -17 -154 51 -141 73 13 93 91 37 146 -21 22 -56
20 -88 -5z m69 -22 c14 -11 16 -21 11 -50 -7 -39 -30 -49 -54 -25 -15 15 -15
61 0 76 15 15 20 15 43 -1z"/>
<path d="M913 3924 c-7 -3 -9 -12 -6 -20 4 -11 8 -12 19 -3 26 22 26 1 0 -34
-14 -18 -23 -37 -19 -40 10 -11 63 -8 63 3 0 6 -7 10 -15 10 -8 0 -15 4 -15 9
0 5 7 14 15 21 36 30 3 72 -42 54z"/>
<path d="M5553 3833 c-10 -4 -13 -89 -13 -377 l0 -373 53 -7 c67 -8 1130 -8
1151 0 14 5 16 48 16 375 l0 369 -26 10 c-26 10 -1157 13 -1181 3z m1120 -53
c4 0 7 -146 7 -325 l0 -325 -535 0 -535 0 0 323 c0 178 2 326 4 328 3 3 419 3
1059 -1z"/>
<path d="M5785 3700 c-4 -7 -3 -16 3 -22 14 -14 57 -6 57 12 0 18 -50 26 -60
10z"/>
<path d="M5790 3500 c0 -18 7 -20 80 -20 73 0 80 2 80 20 0 18 -7 20 -80 20
-73 0 -80 -2 -80 -20z"/>
<path d="M5790 3395 c0 -13 22 -15 135 -15 113 0 135 2 135 15 0 13 -22 15
-135 15 -113 0 -135 -2 -135 -15z"/>
<path d="M6127 3404 c-16 -17 10 -24 84 -24 64 0 79 3 79 15 0 12 -15 15 -78
15 -43 0 -82 -3 -85 -6z"/>
<path d="M6337 3404 c-15 -15 8 -24 64 -24 46 0 59 3 59 15 0 12 -13 15 -58
15 -32 0 -62 -3 -65 -6z"/>
<path d="M6240 3350 c0 -5 7 -10 15 -10 22 0 20 -69 -2 -86 -16 -12 -13 -13
22 -13 33 0 37 2 24 12 -17 13 -15 87 2 87 5 0 9 5 9 10 0 6 -16 10 -35 10
-19 0 -35 -4 -35 -10z"/>
<path d="M5797 3314 c-4 -4 -7 -13 -7 -21 0 -10 20 -13 81 -13 71 0 80 2 77
18 -3 14 -16 18 -74 20 -38 1 -73 0 -77 -4z"/>
<path d="M6015 3310 c-14 -23 11 -30 116 -30 100 0 110 2 107 18 -3 15 -18 17
-110 20 -65 2 -109 -1 -113 -8z"/>
<path d="M207 3813 c-11 -10 -8 -381 3 -388 5 -3 64 -6 130 -6 97 0 120 -3
120 -15 0 -11 -16 -14 -71 -14 -67 0 -70 -1 -67 -22 3 -22 3 -22 193 -19 105
1 194 6 199 11 18 18 -8 30 -65 30 -44 0 -60 3 -56 13 2 8 32 12 98 13 52 1
108 2 125 3 l30 1 0 194 c-1 187 -2 195 -21 200 -29 8 -610 7 -618 -1z m575
-53 c2 -5 1 -74 -2 -152 l-5 -143 -255 0 -255 0 -3 153 -3 152 260 0 c161 0
261 -4 263 -10z"/>
<path d="M474 3726 c-24 -18 -13 -31 14 -17 14 7 29 8 46 1 36 -13 34 -49 -4
-85 -32 -31 -39 -55 -15 -55 8 0 15 6 15 13 0 7 14 26 30 42 19 18 30 39 30
56 0 50 -71 77 -116 45z"/>
<path d="M495 3520 c-8 -14 3 -30 21 -30 8 0 14 9 14 20 0 21 -24 28 -35 10z"/>
<path d="M1360 3533 c0 -37 -3 -85 -6 -106 -7 -36 -6 -37 22 -36 16 1 36 -1
44 -5 27 -11 65 39 65 86 0 46 -22 68 -66 68 -23 0 -28 5 -31 27 -2 14 -9 28
-15 31 -10 3 -13 -15 -13 -65z m89 -45 c16 -45 -13 -84 -44 -58 -28 24 -12 80
22 80 8 0 17 -10 22 -22z"/>
<path d="M1249 3553 c-1 -5 0 -18 1 -30 1 -18 -4 -23 -24 -23 -16 0 -26 -6
-26 -15 0 -10 10 -15 26 -15 23 0 26 -3 22 -25 -4 -19 -1 -25 13 -25 13 0 19
7 19 24 0 18 6 26 22 28 31 4 33 25 3 32 -18 5 -25 13 -25 31 0 16 -6 25 -15
25 -8 0 -15 -3 -16 -7z"/>
<path d="M1065 3529 c-10 -16 3 -24 37 -24 17 0 33 -6 35 -12 3 -9 -6 -13 -24
-13 -32 0 -57 -16 -66 -41 -11 -32 33 -62 70 -48 13 5 25 4 28 -1 16 -26 25
-3 25 64 0 58 -3 75 -16 80 -25 10 -82 7 -89 -5z m73 -81 c-6 -16 -36 -34 -44
-26 -3 4 -4 14 -1 23 7 17 51 21 45 3z"/>
<path d="M1681 3521 c-32 -32 -29 -94 7 -119 32 -22 75 -16 80 12 3 14 -1 17
-16 12 -27 -9 -49 2 -56 26 -8 33 11 58 45 58 41 0 33 24 -9 28 -21 2 -37 -3
-51 -17z"/>
<path d="M1510 3515 c0 -12 13 -15 66 -15 48 0 65 3 62 13 -3 7 -28 13 -66 15
-51 2 -62 0 -62 -13z"/>
<path d="M1517 3474 c-4 -4 -7 -13 -7 -21 0 -10 15 -13 63 -10 43 2 62 7 62
17 0 14 -105 27 -118 14z"/>
<path d="M978 3332 l-58 -3 -1 -62 c-2 -162 1 -309 6 -318 4 -5 130 -9 300 -9
l294 0 7 46 c7 50 1 330 -8 339 -6 6 -447 12 -540 7z m482 -197 l0 -155 -247
2 -248 3 -3 153 -3 152 251 0 250 0 0 -155z m40 70 c0 -14 -4 -25 -10 -25 -5
0 -10 11 -10 25 0 14 5 25 10 25 6 0 10 -11 10 -25z m10 -70 c0 -8 -6 -15 -14
-15 -17 0 -28 14 -19 24 12 12 33 6 33 -9z m-10 -71 c0 -14 -4 -23 -10 -19 -5
3 -10 15 -10 26 0 10 5 19 10 19 6 0 10 -12 10 -26z"/>
<path d="M693 3283 c-7 -3 -13 -11 -13 -19 0 -25 -97 -207 -104 -196 -4 6 -9
41 -13 77 l-6 66 -65 -3 c-41 -2 -67 -8 -70 -15 -3 -9 12 -13 51 -13 62 0 61
2 72 -124 11 -112 22 -105 103 65 l67 141 55 -3 c77 -3 92 -1 88 13 -4 12
-136 20 -165 11z"/>
<path d="M443 3143 c-19 -4 -23 -11 -23 -39 0 -30 3 -34 25 -34 25 0 44 -24
31 -37 -4 -4 -18 -7 -31 -8 -34 0 -36 -19 -3 -23 75 -9 97 76 24 89 -30 6 -25
24 7 27 16 2 27 8 24 15 -4 13 -21 17 -54 10z"/>
<path d="M5406 3042 c-2 -4 10 -26 29 -47 l33 -40 672 -3 672 -3 40 40 c22 22
37 45 33 51 -7 12 -1471 14 -1479 2z"/>
<path d="M6187 2924 c-11 -11 -8 -64 3 -64 6 0 13 7 17 16 7 18 -9 58 -20 48z"/>
<path d="M892 2881 c4 -13 18 -16 19 -4 0 4 -5 9 -11 12 -7 2 -11 -2 -8 -8z"/>
<path d="M900 2789 c0 -17 4 -28 10 -24 6 3 10 17 10 31 0 13 -4 24 -10 24 -5
0 -10 -14 -10 -31z"/>
<path d="M6188 2804 c-5 -4 -8 -19 -8 -33 0 -18 3 -22 11 -14 6 6 9 21 7 33
-1 12 -6 18 -10 14z"/>
<path d="M910 2709 c0 -9 9 -24 20 -34 26 -23 26 -8 0 25 -14 18 -20 21 -20 9z"/>
<path d="M4617 2713 c-15 -14 -6 -23 22 -23 34 0 49 15 25 24 -21 8 -39 8 -47
-1z"/>
<path d="M6113 2713 c-23 -9 -14 -25 10 -18 31 10 45 25 22 24 -11 0 -26 -3
-32 -6z"/>
<path d="M4725 2700 c3 -5 17 -10 30 -10 13 0 27 5 30 10 4 6 -8 10 -30 10
-22 0 -34 -4 -30 -10z"/>
<path d="M4835 2700 c3 -5 15 -10 25 -10 10 0 22 5 25 10 4 6 -7 10 -25 10
-18 0 -29 -4 -25 -10z"/>
<path d="M4932 2705 c10 -11 45 -13 59 -4 10 6 2 9 -25 9 -22 0 -37 -2 -34 -5z"/>
<path d="M5050 2700 c20 -13 50 -13 50 0 0 6 -15 10 -32 10 -25 0 -29 -3 -18
-10z"/>
<path d="M5155 2700 c3 -5 15 -10 25 -10 10 0 22 5 25 10 4 6 -7 10 -25 10
-18 0 -29 -4 -25 -10z"/>
<path d="M5264 2699 c12 -8 25 -8 40 -1 18 9 16 11 -19 11 -33 0 -37 -1 -21
-10z"/>
<path d="M5360 2700 c0 -5 11 -10 24 -10 14 0 28 5 31 10 4 6 -7 10 -24 10
-17 0 -31 -4 -31 -10z"/>
<path d="M5470 2700 c20 -13 47 -13 55 0 4 6 -9 10 -32 10 -28 0 -34 -3 -23
-10z"/>
<path d="M5574 2703 c11 -11 45 -13 51 -3 4 6 -7 10 -26 10 -18 0 -29 -3 -25
-7z"/>
<path d="M5680 2700 c20 -13 47 -13 55 0 4 6 -9 10 -32 10 -28 0 -34 -3 -23
-10z"/>
<path d="M5785 2700 c3 -5 15 -10 25 -10 10 0 22 5 25 10 4 6 -7 10 -25 10
-18 0 -29 -4 -25 -10z"/>
<path d="M5890 2700 c20 -13 47 -13 55 0 4 6 -9 10 -32 10 -28 0 -34 -3 -23
-10z"/>
<path d="M5995 2700 c3 -5 15 -10 25 -10 10 0 22 5 25 10 4 6 -7 10 -25 10
-18 0 -29 -4 -25 -10z"/>
<path d="M995 2660 c-4 -6 7 -10 24 -10 17 0 31 5 31 10 0 6 -11 10 -24 10
-14 0 -28 -4 -31 -10z"/>
<path d="M1105 2660 c-4 -6 7 -10 25 -10 18 0 29 4 25 10 -3 6 -15 10 -25 10
-10 0 -22 -4 -25 -10z"/>
<path d="M1205 2660 c-4 -6 8 -10 30 -10 22 0 34 4 30 10 -3 6 -17 10 -30 10
-13 0 -27 -4 -30 -10z"/>
<path d="M1310 2660 c0 -5 14 -10 31 -10 17 0 28 4 24 10 -3 6 -17 10 -31 10
-13 0 -24 -4 -24 -10z"/>
<path d="M1415 2660 c-4 -6 8 -10 30 -10 22 0 34 4 30 10 -3 6 -17 10 -30 10
-13 0 -27 -4 -30 -10z"/>
<path d="M1520 2660 c0 -5 14 -10 31 -10 17 0 28 4 24 10 -3 6 -17 10 -31 10
-13 0 -24 -4 -24 -10z"/>
<path d="M1624 2659 c-3 -5 11 -9 31 -9 20 0 34 4 31 9 -3 5 -17 9 -31 9 -14
0 -28 -4 -31 -9z"/>
<path d="M1735 2660 c-4 -6 7 -10 24 -10 17 0 31 5 31 10 0 6 -11 10 -24 10
-14 0 -28 -4 -31 -10z"/>
<path d="M1840 2659 c0 -5 14 -9 32 -9 36 0 31 12 -7 16 -14 1 -25 -2 -25 -7z"/>
<path d="M1945 2660 c-4 -6 7 -10 24 -10 17 0 31 5 31 10 0 6 -11 10 -24 10
-14 0 -28 -4 -31 -10z"/>
<path d="M2050 2660 c0 -5 14 -10 31 -10 17 0 28 4 24 10 -3 6 -17 10 -31 10
-13 0 -24 -4 -24 -10z"/>
<path d="M1933 2493 c-13 -2 -23 -9 -23 -15 0 -21 77 -113 117 -141 l39 -27
1320 2 c1099 3 1322 5 1339 17 23 15 102 113 111 135 4 11 -3 19 -21 26 -26
10 -2832 13 -2882 3z"/>
<path d="M4140 2260 c0 -16 5 -30 10 -30 6 0 10 14 10 30 0 17 -4 30 -10 30
-5 0 -10 -13 -10 -30z"/>
<path d="M3550 2255 c0 -14 5 -25 10 -25 6 0 10 11 10 25 0 14 -4 25 -10 25
-5 0 -10 -11 -10 -25z"/>
<path d="M2930 2235 c0 -19 5 -35 10 -35 6 0 10 16 10 35 0 19 -4 35 -10 35
-5 0 -10 -16 -10 -35z"/>
<path d="M3557 2183 c-11 -10 -8 -51 3 -58 6 -4 10 8 10 29 0 37 -2 41 -13 29z"/>
<path d="M4140 2160 c0 -16 5 -30 10 -30 6 0 10 14 10 30 0 17 -4 30 -10 30
-5 0 -10 -13 -10 -30z"/>
<path d="M5123 2153 c-10 -4 -13 -99 -13 -428 0 -328 3 -426 13 -432 6 -4 90
-9 185 -11 94 -3 172 -8 172 -13 0 -5 -106 -9 -237 -9 -243 0 -283 -4 -283
-24 1 -17 55 -73 78 -80 20 -7 1192 -14 1192 -8 0 2 -11 19 -25 39 l-24 37 36
20 c77 43 132 156 116 238 -25 134 -154 219 -284 188 -91 -22 -169 -120 -169
-212 0 -76 50 -163 117 -204 19 -12 30 -23 24 -25 -6 -2 -112 -3 -236 -1
l-225 3 2 257 3 257 423 2 422 3 0 -260 0 -260 -35 0 c-42 0 -44 -13 -11 -55
22 -27 28 -29 97 -30 98 -1 139 10 166 44 37 48 38 58 2 65 -17 3 -49 6 -70 6
l-38 0 -3 433 c-2 350 -6 437 -17 450 -12 16 -72 17 -690 16 -372 0 -682 -3
-688 -6z m1297 -193 l0 -140 -462 -2 -463 -3 -5 -235 -5 -235 -125 -3 c-69 -1
-135 0 -147 3 l-23 5 0 369 c0 202 3 371 7 374 3 4 280 7 615 7 l608 0 0 -140z
m58 -358 c2 -33 0 -42 -12 -42 -12 0 -16 11 -16 46 0 59 24 55 28 -4z m-303 9
c75 -34 125 -122 110 -194 -11 -50 -51 -105 -95 -127 -141 -72 -303 74 -246
224 20 52 51 83 103 101 51 19 81 18 128 -4z m312 -102 c17 -17 3 -49 -22 -49
-27 0 -40 26 -24 46 14 17 31 18 46 3z m-7 -144 c0 -33 -4 -45 -15 -45 -11 0
-15 12 -15 45 0 33 4 45 15 45 11 0 15 -12 15 -45z"/>
<path d="M2930 2119 c0 -17 4 -28 10 -24 6 3 10 17 10 31 0 13 -4 24 -10 24
-5 0 -10 -14 -10 -31z"/>
<path d="M3550 2050 c0 -16 5 -30 10 -30 6 0 10 14 10 30 0 17 -4 30 -10 30
-5 0 -10 -13 -10 -30z"/>
<path d="M4140 2050 c0 -16 5 -30 10 -30 6 0 10 14 10 30 0 17 -4 30 -10 30
-5 0 -10 -13 -10 -30z"/>
<path d="M2930 2020 c0 -16 5 -30 10 -30 6 0 10 14 10 30 0 17 -4 30 -10 30
-5 0 -10 -13 -10 -30z"/>
<path d="M3550 1940 c0 -16 5 -30 10 -30 6 0 10 14 10 30 0 17 -4 30 -10 30
-5 0 -10 -13 -10 -30z"/>
<path d="M4140 1940 c0 -16 5 -30 10 -30 6 0 10 14 10 30 0 17 -4 30 -10 30
-5 0 -10 -13 -10 -30z"/>
<path d="M2930 1915 c0 -22 4 -34 10 -30 6 3 10 17 10 30 0 13 -4 27 -10 30
-6 4 -10 -8 -10 -30z"/>
<path d="M2010 1898 l0 -38 172 -2 171 -3 1 -407 1 -408 -666 0 c-366 0 -668
2 -670 4 -2 2 -3 187 -1 410 l2 406 170 0 170 0 0 33 0 32 -207 -3 c-115 -1
-214 -4 -220 -7 -10 -3 -13 -105 -13 -464 0 -445 1 -461 19 -471 13 -7 269
-10 761 -10 696 0 741 1 748 18 12 30 8 910 -4 922 -7 7 -67 12 -165 12 -85 1
-180 4 -211 8 l-58 6 0 -38z"/>
<path d="M3550 1840 c0 -16 5 -30 10 -30 6 0 10 14 10 30 0 17 -4 30 -10 30
-5 0 -10 -13 -10 -30z"/>
<path d="M4140 1840 c0 -16 5 -30 10 -30 6 0 10 14 10 30 0 17 -4 30 -10 30
-5 0 -10 -13 -10 -30z"/>
<path d="M2930 1810 c0 -16 5 -30 10 -30 6 0 10 14 10 30 0 17 -4 30 -10 30
-5 0 -10 -13 -10 -30z"/>
<path d="M3557 1763 c-11 -10 -8 -63 3 -63 6 0 10 16 10 35 0 36 -2 40 -13 28z"/>
<path d="M4140 1735 c0 -22 4 -34 10 -30 6 3 10 17 10 30 0 13 -4 27 -10 30
-6 4 -10 -8 -10 -30z"/>
<path d="M2930 1700 c0 -16 5 -30 10 -30 6 0 10 14 10 30 0 17 -4 30 -10 30
-5 0 -10 -13 -10 -30z"/>
<path d="M4160 1662 c0 -10 33 -42 43 -42 14 0 5 16 -18 33 -14 10 -25 14 -25
9z"/>
<path d="M3557 1653 c-11 -10 -8 -51 3 -58 6 -4 10 8 10 29 0 37 -2 41 -13 29z"/>
<path d="M2930 1600 c0 -16 5 -30 10 -30 6 0 10 14 10 30 0 17 -4 30 -10 30
-5 0 -10 -13 -10 -30z"/>
<path d="M4260 1620 c0 -5 11 -10 24 -10 14 0 28 5 31 10 4 6 -7 10 -24 10
-17 0 -31 -4 -31 -10z"/>
<path d="M4365 1620 c3 -5 17 -10 31 -10 13 0 24 5 24 10 0 6 -14 10 -31 10
-17 0 -28 -4 -24 -10z"/>
<path d="M4470 1620 c0 -5 11 -10 24 -10 14 0 28 5 31 10 4 6 -7 10 -24 10
-17 0 -31 -4 -31 -10z"/>
<path d="M4575 1620 c3 -5 17 -10 30 -10 13 0 27 5 30 10 4 6 -8 10 -30 10
-22 0 -34 -4 -30 -10z"/>
<path d="M4685 1620 c3 -5 17 -10 31 -10 13 0 24 5 24 10 0 6 -14 10 -31 10
-17 0 -28 -4 -24 -10z"/>
<path d="M4785 1620 c3 -5 17 -10 30 -10 13 0 27 5 30 10 4 6 -8 10 -30 10
-22 0 -34 -4 -30 -10z"/>
<path d="M4895 1620 c3 -5 15 -10 25 -10 10 0 22 5 25 10 4 6 -7 10 -25 10
-18 0 -29 -4 -25 -10z"/>
<path d="M5000 1620 c0 -5 11 -10 24 -10 14 0 28 5 31 10 4 6 -7 10 -24 10
-17 0 -31 -4 -31 -10z"/>
<path d="M3550 1520 c0 -16 5 -30 10 -30 6 0 10 14 10 30 0 17 -4 30 -10 30
-5 0 -10 -13 -10 -30z"/>
<path d="M2930 1490 c0 -16 5 -30 10 -30 6 0 10 14 10 30 0 17 -4 30 -10 30
-5 0 -10 -13 -10 -30z"/>
<path d="M3557 1443 c-11 -10 -8 -51 3 -58 6 -4 10 8 10 29 0 37 -2 41 -13 29z"/>
<path d="M2930 1391 c0 -17 5 -31 10 -31 6 0 10 11 10 24 0 14 -4 28 -10 31
-6 4 -10 -7 -10 -24z"/>
<path d="M1318 1398 c-36 -13 -35 -34 2 -53 40 -21 40 -20 40 25 0 43 -1 44
-42 28z"/>
<path d="M2010 1370 c0 -34 -1 -34 34 -20 29 11 34 35 10 44 -33 13 -44 6 -44
-24z"/>
<path d="M3866 1384 c-3 -9 -6 -87 -6 -175 l0 -159 -422 -2 -423 -3 -3 -310
c-2 -283 -1 -311 15 -323 26 -19 1456 -18 1472 2 8 10 11 146 11 485 0 259 -3
478 -6 486 -5 13 -51 15 -319 15 -276 0 -314 -2 -319 -16z m569 -469 l0 -410
-210 0 -210 0 -5 270 -5 270 -37 3 -38 3 0 133 c0 73 3 136 7 140 4 3 117 5
252 4 l246 -3 0 -410z m-500 -185 l0 -245 -412 -3 -413 -2 0 243 c0 134 3 247
7 250 4 4 189 6 412 5 l406 -3 0 -245z m-857 112 c2 -33 0 -42 -12 -42 -12 0
-16 11 -16 46 0 59 24 55 28 -4z m10 -110 c4 -28 -24 -40 -45 -19 -14 13 -14
19 -3 32 18 22 44 15 48 -13z m-10 -122 c-5 -49 -28 -51 -28 -2 0 21 3 42 7
46 13 12 24 -12 21 -44z m1130 -154 c-2 -13 -12 -22 -26 -24 -29 -4 -42 26
-18 44 24 17 48 6 44 -20z m-88 4 c0 -5 -23 -10 -51 -10 -31 0 -48 4 -44 10 3
6 26 10 51 10 24 0 44 -4 44 -10z m225 0 c4 -6 -13 -10 -45 -10 -32 0 -49 4
-45 10 3 6 24 10 45 10 21 0 42 -4 45 -10z"/>
<path d="M3478 885 c-26 -9 -66 -33 -88 -54 -33 -31 -40 -44 -40 -76 0 -21 5
-53 12 -71 11 -31 10 -34 -33 -74 -29 -28 -37 -40 -24 -36 11 2 48 12 83 22
50 13 68 14 88 5 36 -16 143 -14 195 4 149 52 162 197 25 267 -53 27 -155 33
-218 13z m140 -51 c33 -23 28 -62 -17 -111 -21 -24 -44 -43 -50 -43 -20 0 -11
44 15 71 36 38 27 64 -20 55 -41 -8 -58 10 -31 31 25 18 75 17 103 -3z m-38
-200 c0 -17 -6 -24 -20 -24 -25 0 -36 25 -20 45 16 20 40 7 40 -21z"/>
<path d="M3550 1310 c0 -16 5 -30 10 -30 6 0 10 14 10 30 0 17 -4 30 -10 30
-5 0 -10 -13 -10 -30z"/>
<path d="M2930 1280 c0 -16 5 -30 10 -30 6 0 10 14 10 30 0 17 -4 30 -10 30
-5 0 -10 -13 -10 -30z"/>
<path d="M3550 1206 c0 -14 5 -28 10 -31 6 -4 10 7 10 24 0 17 -4 31 -10 31
-5 0 -10 -11 -10 -24z"/>
<path d="M2895 1190 c-10 -11 -16 -22 -14 -25 7 -6 49 24 49 36 0 15 -16 10
-35 -11z"/>
<path d="M2477 1174 c-10 -11 3 -24 24 -24 10 0 19 7 19 15 0 15 -31 21 -43 9z"/>
<path d="M2565 1169 c-8 -12 36 -22 47 -11 6 6 0 11 -17 14 -14 3 -28 2 -30
-3z"/>
<path d="M2685 1169 c-21 -8 -21 -8 12 -15 12 -2 24 0 27 5 8 13 -16 19 -39
10z"/>
<path d="M2787 1173 c-27 -7 -11 -21 18 -16 13 3 22 9 19 14 -5 9 -8 10 -37 2z"/>
<path d="M3557 1123 c-11 -10 -8 -53 3 -53 6 0 10 14 10 30 0 31 -2 35 -13 23z"/>
<path d="M761 931 c-12 -8 -9 -16 15 -44 61 -72 -10 -67 917 -67 929 0 835 -7
902 68 25 28 27 34 15 42 -20 13 -1830 13 -1849 1z"/>
</g>
</svg>
